<svg width="860" height="230" viewBox="0 0 860 230" xmlns="http://www.w3.org/2000/svg">
  <defs>
    <linearGradient id="tl" x1="0" y1="0" x2="1" y2="0">
      <stop offset="0%" stop-color="#6ee600" stop-opacity="0"/>
      <stop offset="50%" stop-color="#6ee600" stop-opacity="1"/>
      <stop offset="100%" stop-color="#6ee600" stop-opacity="0"/>
    </linearGradient>
    <pattern id="g" width="40" height="40" patternUnits="userSpaceOnUse">
      <path d="M40 0L0 0 0 40" fill="none" stroke="#6ee600" stroke-width="0.3" opacity="0.07"/>
    </pattern>
  </defs>
  <rect width="860" height="230" rx="12" fill="#0d0d0d"/>
  <rect width="860" height="230" rx="12" fill="url(#g)"/>
  <rect width="860" height="2" rx="1" fill="url(#tl)"/>
  <rect width="860" height="230" rx="12" fill="none" stroke="#1a3a00" stroke-width="1"/>
  <path d="M16 40L16 16L40 16" fill="none" stroke="#2a5000" stroke-width="1.5"/>
  <path d="M820 16L844 16L844 40" fill="none" stroke="#2a5000" stroke-width="1.5"/>
  <path d="M16 190L16 214L40 214" fill="none" stroke="#2a5000" stroke-width="1.5"/>
  <path d="M820 214L844 214L844 190" fill="none" stroke="#2a5000" stroke-width="1.5"/>
  <text x="32" y="44" font-family="monospace" font-size="11" fill="#6ee600" letter-spacing="3" font-weight="bold">&#9658; ~/ABOUT_ME</text>
  <rect x="32" y="50" width="796" height="1" fill="#1a3a00"/>
  <rect x="32" y="66" width="390" height="64" rx="8" fill="#080808" stroke="#1a3a00" stroke-width="1"/>
  <rect x="32" y="66" width="3" height="64" rx="1" fill="#6ee600"/>
  <text x="50" y="86" font-family="monospace" font-size="9" fill="#3d8000" letter-spacing="2">EDUCATION</text>
  <text x="50" y="106" font-family="monospace" font-size="13" fill="#c8e6a0">CS Student @ IIIT Dharwad</text>
  <text x="50" y="122" font-family="monospace" font-size="11" fill="#4a6a20">Dharwad, Karnataka, India</text>
  <rect x="438" y="66" width="390" height="64" rx="8" fill="#080808" stroke="#1a3a00" stroke-width="1"/>
  <rect x="438" y="66" width="3" height="64" rx="1" fill="#6ee600"/>
  <text x="456" y="86" font-family="monospace" font-size="9" fill="#3d8000" letter-spacing="2">CURRENTLY EXPLORING</text>
  <text x="456" y="106" font-family="monospace" font-size="13" fill="#c8e6a0">Cybersecurity &amp; CTFs</text>
  <text x="456" y="122" font-family="monospace" font-size="11" fill="#4a6a20">Breaking things ethically</text>
  <rect x="32" y="146" width="390" height="64" rx="8" fill="#080808" stroke="#1a3a00" stroke-width="1"/>
  <rect x="32" y="146" width="3" height="64" rx="1" fill="#6ee600"/>
  <text x="50" y="166" font-family="monospace" font-size="9" fill="#3d8000" letter-spacing="2">EXPERIENCE</text>
  <text x="50" y="186" font-family="monospace" font-size="13" fill="#c8e6a0">Full Stack · Mobile · Blockchain</text>
  <text x="50" y="202" font-family="monospace" font-size="11" fill="#4a6a20">Scalable and reliable systems</text>
  <rect x="438" y="146" width="390" height="64" rx="8" fill="#080808" stroke="#1a3a00" stroke-width="1"/>
  <rect x="438" y="146" width="3" height="64" rx="1" fill="#6ee600"/>
  <text x="456" y="166" font-family="monospace" font-size="9" fill="#3d8000" letter-spacing="2">MANTRA</text>
  <text x="456" y="186" font-family="monospace" font-size="13" fill="#c8e6a0">Build . Break . Learn . Repeat</text>
  <text x="456" y="202" font-family="monospace" font-size="11" fill="#4a6a20">every single day, no exceptions</text>
  <circle cx="32" cy="222" r="3.5" fill="#6ee600"/>
  <text x="44" y="226" font-family="monospace" font-size="9" fill="#3d5c00" letter-spacing="1">STATUS: ONLINE // UDAY-KIRANK</text>
</svg>
