<svg width="860" height="280" viewBox="0 0 860 280" xmlns="http://www.w3.org/2000/svg">
  <defs>
    <linearGradient id="tl" x1="0" y1="0" x2="1" y2="0">
      <stop offset="0%" stop-color="#6ee600" stop-opacity="0"/>
      <stop offset="50%" stop-color="#6ee600" stop-opacity="1"/>
      <stop offset="100%" stop-color="#6ee600" stop-opacity="0"/>
    </linearGradient>
    <pattern id="g" width="40" height="40" patternUnits="userSpaceOnUse">
      <path d="M40 0L0 0 0 40" fill="none" stroke="#6ee600" stroke-width="0.3" opacity="0.07"/>
    </pattern>
  </defs>
  <rect width="860" height="280" rx="12" fill="#0d0d0d"/>
  <rect width="860" height="280" rx="12" fill="url(#g)"/>
  <rect width="860" height="2" rx="1" fill="url(#tl)"/>
  <rect width="860" height="280" rx="12" fill="none" stroke="#1a3a00" stroke-width="1"/>
  <path d="M16 40L16 16L40 16" fill="none" stroke="#2a5000" stroke-width="1.5"/>
  <path d="M820 16L844 16L844 40" fill="none" stroke="#2a5000" stroke-width="1.5"/>
  <path d="M16 240L16 264L40 264" fill="none" stroke="#2a5000" stroke-width="1.5"/>
  <path d="M820 264L844 264L844 240" fill="none" stroke="#2a5000" stroke-width="1.5"/>
  <text x="32" y="44" font-family="monospace" font-size="11" fill="#6ee600" letter-spacing="3" font-weight="bold">&#9658; ~/TECH_STACK</text>
  <rect x="32" y="50" width="796" height="1" fill="#1a3a00"/>
  <text x="32" y="74" font-family="monospace" font-size="9" fill="#3d8000" letter-spacing="2">// LANGUAGES</text>
  <rect x="32" y="82" width="58" height="28" rx="6" fill="#080808" stroke="#2a5000" stroke-width="1"/>
  <text x="61" y="101" font-family="monospace" font-size="12" fill="#6ee600" text-anchor="middle">C</text>
  <rect x="98" y="82" width="58" height="28" rx="6" fill="#080808" stroke="#2a5000" stroke-width="1"/>
  <text x="127" y="101" font-family="monospace" font-size="12" fill="#6ee600" text-anchor="middle">C++</text>
  <rect x="164" y="82" width="60" height="28" rx="6" fill="#080808" stroke="#2a5000" stroke-width="1"/>
  <text x="194" y="101" font-family="monospace" font-size="12" fill="#6ee600" text-anchor="middle">Java</text>
  <rect x="232" y="82" width="100" height="28" rx="6" fill="#080808" stroke="#2a5000" stroke-width="1"/>
  <text x="282" y="101" font-family="monospace" font-size="12" fill="#6ee600" text-anchor="middle">JavaScript</text>
  <rect x="340" y="82" width="74" height="28" rx="6" fill="#080808" stroke="#1a3a00" stroke-width="1"/>
  <text x="377" y="101" font-family="monospace" font-size="12" fill="#c8e6a0" text-anchor="middle">Python</text>
  <rect x="422" y="82" width="80" height="28" rx="6" fill="#080808" stroke="#1a3a00" stroke-width="1"/>
  <text x="462" y="101" font-family="monospace" font-size="12" fill="#c8e6a0" text-anchor="middle">Solidity</text>
  <text x="32" y="136" font-family="monospace" font-size="9" fill="#3d8000" letter-spacing="2">// FRONTEND</text>
  <rect x="32" y="144" width="70" height="28" rx="6" fill="#080808" stroke="#2a5000" stroke-width="1"/>
  <text x="67" y="163" font-family="monospace" font-size="12" fill="#6ee600" text-anchor="middle">React</text>
  <rect x="110" y="144" width="120" height="28" rx="6" fill="#080808" stroke="#2a5000" stroke-width="1"/>
  <text x="170" y="163" font-family="monospace" font-size="12" fill="#6ee600" text-anchor="middle">React Native</text>
  <rect x="238" y="144" width="110" height="28" rx="6" fill="#080808" stroke="#1a3a00" stroke-width="1"/>
  <text x="293" y="163" font-family="monospace" font-size="12" fill="#c8e6a0" text-anchor="middle">Tailwind CSS</text>
  <rect x="356" y="144" width="90" height="28" rx="6" fill="#080808" stroke="#1a3a00" stroke-width="1"/>
  <text x="401" y="163" font-family="monospace" font-size="12" fill="#c8e6a0" text-anchor="middle">Bootstrap</text>
  <rect x="454" y="144" width="55" height="28" rx="6" fill="#080808" stroke="#1a3a00" stroke-width="1"/>
  <text x="481" y="163" font-family="monospace" font-size="12" fill="#c8e6a0" text-anchor="middle">HTML</text>
  <rect x="517" y="144" width="50" height="28" rx="6" fill="#080808" stroke="#1a3a00" stroke-width="1"/>
  <text x="542" y="163" font-family="monospace" font-size="12" fill="#c8e6a0" text-anchor="middle">CSS</text>
  <text x="32" y="198" font-family="monospace" font-size="9" fill="#3d8000" letter-spacing="2">// BACKEND AND INFRA</text>
  <rect x="32" y="206" width="80" height="28" rx="6" fill="#080808" stroke="#2a5000" stroke-width="1"/>
  <text x="72" y="225" font-family="monospace" font-size="12" fill="#6ee600" text-anchor="middle">Node.js</text>
  <rect x="120" y="206" width="80" height="28" rx="6" fill="#080808" stroke="#2a5000" stroke-width="1"/>
  <text x="160" y="225" font-family="monospace" font-size="12" fill="#6ee600" text-anchor="middle">Express</text>
  <rect x="208" y="206" width="100" height="28" rx="6" fill="#080808" stroke="#1a3a00" stroke-width="1"/>
  <text x="258" y="225" font-family="monospace" font-size="12" fill="#c8e6a0" text-anchor="middle">PostgreSQL</text>
  <rect x="316" y="206" width="90" height="28" rx="6" fill="#080808" stroke="#1a3a00" stroke-width="1"/>
  <text x="361" y="225" font-family="monospace" font-size="12" fill="#c8e6a0" text-anchor="middle">MongoDB</text>
  <rect x="414" y="206" width="70" height="28" rx="6" fill="#080808" stroke="#1a3a00" stroke-width="1"/>
  <text x="449" y="225" font-family="monospace" font-size="12" fill="#c8e6a0" text-anchor="middle">Docker</text>
  <rect x="492" y="206" width="60" height="28" rx="6" fill="#080808" stroke="#1a3a00" stroke-width="1"/>
  <text x="522" y="225" font-family="monospace" font-size="12" fill="#c8e6a0" text-anchor="middle">Linux</text>
  <rect x="560" y="206" width="50" height="28" rx="6" fill="#080808" stroke="#1a3a00" stroke-width="1"/>
  <text x="585" y="225" font-family="monospace" font-size="12" fill="#c8e6a0" text-anchor="middle">Git</text>
  <circle cx="32" cy="272" r="3.5" fill="#6ee600"/>
  <text x="44" y="276" font-family="monospace" font-size="9" fill="#3d5c00" letter-spacing="1">STACK LOADED // 18 TECHNOLOGIES</text>
</svg>
